<svg version="1.2" xmlns="http://www.w3.org/2000/svg" viewBox="0 -1 1308 455" width="1308" height="455">
	<title>York_Color_logo-FactoryDirect</title>
	<style>
		.s0 { fill: #231f20 } 
		.s1 { fill: #00539d } 
	</style>
	<g id="Layer 1">
		<g id="&lt;Group&gt;">
			<g id="&lt;Group&gt;">
				<path id="&lt;Compound Path&gt;" class="s0" d="m517.4 157.6c0-93.7 64-132.8 125.9-132.8 61.5 0 125.5 39.1 125.5 132.8 0 93.7-64 132.8-125.5 132.8-61.9 0-125.9-39.1-125.9-132.8zm182.2 0c0-47-20.4-75.7-56.3-75.7-36.3 0-56.8 28.7-56.8 75.7 0 47 20.5 77.5 56.8 77.5 35.9 0 56.3-30.5 56.3-77.5z"/>
				<path id="&lt;Compound Path&gt;" class="s0" d="m787.7 285.5v-255.8h99.9c65.7 0 105.8 21.7 105.8 83.3 0 40.1-16.9 63.3-50.5 74.7l59 97.8h-73.3l-54.2-88.8h-19v88.8zm67.8-141.4h29.7c28.4 0 40.9-7.9 40.9-29.4 0-21.4-12.5-29-40.9-29h-29.7z"/>
				<path id="&lt;Compound Path&gt;" class="s0" d="m1018.4 285.5v-255.8h69.2v89.2l70.5-89.2h80.3l-86.1 100.9 93.7 154.9h-78.2l-60.5-102.3-19.7 24.7v77.6z"/>
				<path id="&lt;Path&gt;" class="s0" d="m544.6 29.7h-78.6l-45.3 78.8-45-78.8h-78.9l89.2 149v106.8h69.5v-106.8l89.2-149z"/>
				<path id="&lt;Compound Path&gt;" class="s0" d="m1250.1 48.9c0-13.6 10.5-24.1 24.1-24.1 13.4 0 23.8 10.4 23.8 23.9 0 13.6-10.5 24.1-24.1 24.1-13.5 0-23.8-10.4-23.8-23.9zm43 0c0-11.1-8.2-19.6-19.2-19.6-10.8 0-18.9 8.3-18.9 19.4 0 11.1 8.1 19.6 19.2 19.6 10.8 0 18.9-8.2 18.9-19.4zm-28.6-13.7h10.2c6.3 0 10.1 2.8 10.1 8.6 0 4.1-1.8 6.3-4.7 7.6l5.2 10h-6.6l-4.7-9.2h-3.1v9.2h-6.4zm9.8 12.3c2.8 0 4.4-1 4.4-3.4 0-2.2-1.6-3.3-4.4-3.3h-3.4v6.7z"/>
				<g id="&lt;Group&gt;">
					<path id="&lt;Path&gt;" class="s1" d="m10.2 104.3v-0.1h-0.1z"/>
					<path id="&lt;Path&gt;" class="s1" d="m50.9 98.2c2.1-3.9 4.8-7.5 7.8-10.6l-25.3-34.9 14.8-10.7 25.3 34.8c3.9-1.9 8.1-3.3 12.5-4.1v-43.1h-75.9v55.3z"/>
					<path id="&lt;Path&gt;" class="s1" d="m44.8 122.2c0-2.2 0.2-4.4 0.5-6.6l-35.1-11.4v0.1l-0.1-0.1v35.9h0.1l35.1-11.3c-0.3-2.2-0.5-4.4-0.5-6.6z"/>
					<path id="&lt;Path&gt;" class="s1" d="m104.4 29.6v0.3 19.1l20.5-11.8 7.2 12.6-27.7 16v40.5l35.1-20.3v-32h14.5v23.6l16.7-9.6 9.2 15.9-16.7 9.6 20.5 11.9-7.3 12.6-27.7-16.1-35.2 20.3 35.2 20.3 27.8-16.1 7.3 12.6-20.6 11.9 16.7 9.6-9.2 15.9-16.6-9.6v23.6h-14.6v-32l-35.1-20.3v40.5l27.9 16.1-7.3 12.6-20.6-11.9v19.3h-18.4v-43c-4.4-0.8-8.6-2.2-12.5-4.1l-25.3 34.9-14.8-10.8 25.3-34.8c-3.1-3.2-5.7-6.8-7.8-10.7l-40.8 13.3v126h255.9v-255.9z"/>
					<path id="&lt;Path&gt;" class="s1" d="m86 152.9v-61.4c-13.2 4-22.9 16.2-22.9 30.7 0 14.5 9.7 26.8 22.9 30.7z"/>
					<path id="&lt;Path&gt;" class="s1" d="m104.4 29.9v-0.3h-18.4v0.3z"/>
					<path id="&lt;Path&gt;" class="s1" d="m10.2 140.1h-0.1v19.4l0.1-0.1z"/>
					<path id="&lt;Path&gt;" class="s1" d="m10.2 104.2v-19.2l-0.1-0.1v19.3z"/>
					<path id="&lt;Path&gt;" class="s1" d="m10.1 104.2z"/>
				</g>
			</g>
			<path id="&lt;Path&gt;" class="s0" d="m1293.1 341.4h-1283.7v-13.1h1283.7z"/>
			<g id="&lt;Group&gt;">
				<path id="&lt;Compound Path&gt;" class="s0" d="m482.7 427.8v-66.5h42.1v14.7h-23.5v11.9h21.5v14.7h-21.5v25.2z"/>
				<path id="&lt;Compound Path&gt;" class="s0" d="m571.3 427.8l-4.3-14h-22.7l-4.1 14h-19.3l22.6-66.5h24.8l22.4 66.5zm-15.8-51.5l-6.9 23.1h14z"/>
				<path id="&lt;Compound Path&gt;" class="s0" d="m636.6 385.6c-1.8-6.6-5.7-10.4-11.4-10.4-9.6 0-14.6 7.3-14.6 19.4 0 12 5 19.1 14.6 19.1 5.4 0 9.1-3.3 11-9.3h19.3c-3.3 15.4-14.4 24.7-30.3 24.7-20.6 0-33.5-13-33.5-34.5 0-21.4 12.9-34.5 33.5-34.5 16.1 0 27.4 9.5 30.5 25.5z"/>
				<path id="&lt;Compound Path&gt;" class="s0" d="m678.3 427.8v-51.6h-18.3v-14.9h55.1v14.9h-18.2v51.6z"/>
				<path id="&lt;Compound Path&gt;" class="s0" d="m718 394.6c0-21.4 13-34.5 33.8-34.5 20.6 0 33.7 13 33.7 34.5 0 21.4-13.1 34.5-33.7 34.5-20.8 0-33.8-13-33.8-34.5zm48.7 0c0-12.1-5.2-19.4-14.9-19.4-9.8 0-14.9 7.3-14.9 19.4 0 12 5.1 19.1 14.9 19.1 9.7 0 14.9-7.1 14.9-19.1z"/>
				<path id="&lt;Compound Path&gt;" class="s0" d="m832.1 427.8l-11.4-22.4h-6.7v22.4h-18.6v-66.5h26c16.6 0 27.6 7.4 27.6 21.7 0 8.7-4 15.1-10.7 18.7l13.3 26.1zm-12.2-37c6.4 0 10.3-2.5 10.3-7.8 0-4.7-3.9-7.2-10.2-7.2h-6v15z"/>
				<path id="&lt;Compound Path&gt;" class="s0" d="m871.6 427.8v-24.2l-23.4-42.3h19.5l13.2 28.4 13.6-28.4h19.2l-23.5 42.2v24.3z"/>
				<path id="&lt;Compound Path&gt;" class="s0" d="m951.6 427.8v-66.5h25.6c22.8 0 36.3 13.7 36.3 32.8 0 18.3-13.5 33.7-35.8 33.7zm25.6-15c11.6 0 17.5-8.2 17.5-18.7 0-11.2-6.1-18.3-17.9-18.3h-7.1v37z"/>
				<path id="&lt;Compound Path&gt;" class="s0" d="m1023.2 427.8v-66.5h18.6v66.5z"/>
				<path id="&lt;Compound Path&gt;" class="s0" d="m1090.8 427.8l-11.4-22.4h-6.7v22.4h-18.6v-66.5h26c16.5 0 27.6 7.4 27.6 21.7 0 8.7-4 15.1-10.8 18.7l13.4 26.1zm-12.2-37c6.3 0 10.2-2.5 10.2-7.8 0-4.7-3.9-7.2-10.1-7.2h-6v15z"/>
				<path id="&lt;Compound Path&gt;" class="s0" d="m1117.7 427.8v-66.5h42.1v14.7h-23.5v11.3h21.5v13.9h-21.5v11.7h25.5v14.9z"/>
				<path id="&lt;Compound Path&gt;" class="s0" d="m1212 385.6c-1.8-6.6-5.7-10.4-11.4-10.4-9.6 0-14.6 7.3-14.6 19.4 0 12 5 19.1 14.6 19.1 5.4 0 9.1-3.3 11-9.3h19.3c-3.4 15.4-14.5 24.7-30.3 24.7-20.6 0-33.5-13-33.5-34.5 0-21.4 12.9-34.5 33.5-34.5 16.1 0 27.4 9.5 30.4 25.5z"/>
				<path id="&lt;Compound Path&gt;" class="s0" d="m1255.6 427.8v-51.6h-18.2v-14.9h55v14.9h-18.2v51.6z"/>
			</g>
		</g>
	</g>
	<g id="Layer 2">
	</g>
</svg>